<svg style="position: absolute; width: 0; height: 0; overflow: hidden;" version="1.1" xmlns="http://www.w3.org/2000/svg" xmlns:xlink="http://www.w3.org/1999/xlink">
<defs>
<symbol id="icon-aiqing" viewBox="0 0 32 32">
<title>aiqing</title>
<path stroke-width="3.1841" stroke-miterlimit="4" stroke-linecap="round" stroke-linejoin="round" d="M23.406 12.902c0.029-0.21 0.046-0.452 0.046-0.697 0-1.202-0.4-2.311-1.075-3.2l0.010 0.013c-4.139-5.636-8.979-2.086-9.871-1.321-0.86-0.685-5.795-4.187-9.855 1.321-4.919 6.687 8.645 15.522 9.823 16.271v0.048c0.014-0.012 0.029-0.023 0.047-0.031l0.001-0c0.018 0.009 0.034 0.019 0.048 0.032l-0-0v-0.048c1.529-0.986 2.843-1.955 4.093-2.998l-0.065 0.053"></path>
<path stroke-width="1.592" stroke-miterlimit="4" stroke-linecap="round" stroke-linejoin="round" d="M30.395 15.067c-2.945-4.028-6.575-1.29-7.053-0.907-0.478-0.382-4.092-3.104-7.053 0.907-3.582 4.872 6.623 11.495 7.037 11.765v0c0.446-0.271 10.651-6.894 7.069-11.765z"></path>
</symbol>
<symbol id="icon-banben" viewBox="0 0 32 32">
<title>banben</title>
<path stroke-width="1.6306" stroke-miterlimit="4" stroke-linecap="round" stroke-linejoin="round" d="M16.001 0.815c0.005 0 0.011 0 0.017 0 1.939 0 3.793 0.364 5.498 1.028l-0.103-0.035"></path>
<path stroke-width="1.6306" stroke-miterlimit="4" stroke-linecap="round" stroke-linejoin="round" d="M8.764 9.172l7.175 14.92 7.011-14.92s2.617-3.739 6.196-0.77c1.988 1.649 2.033 4.83 2.033 7.597 0 8.386-6.798 15.184-15.184 15.184s-15.184-6.798-15.184-15.184c0-8.386 6.798-15.184 15.184-15.184 0.002 0 0.003 0 0.005 0h-0"></path>
</symbol>
<symbol id="icon-bianji" viewBox="0 0 32 32">
<title>bianji</title>
<path stroke-width="2.4481" stroke-miterlimit="4" stroke-linecap="round" stroke-linejoin="round" d="M18.658 1.574h-13.849c-1.929 0.006-3.491 1.568-3.497 3.497v22.243c0.006 1.929 1.568 3.491 3.497 3.497h21.893c1.929-0.006 3.491-1.568 3.497-3.497v-13.010"></path>
<path stroke-width="1.7486" stroke-miterlimit="4" stroke-linecap="round" stroke-linejoin="round" d="M7.519 24.953h16.909"></path>
<path stroke-width="1.7486" stroke-miterlimit="4" stroke-linecap="round" stroke-linejoin="round" d="M20.704 19.934h3.725"></path>
<path stroke-width="1.7486" stroke-miterlimit="4" stroke-linecap="round" stroke-linejoin="round" d="M11.891 16.385l14.636-14.811s2.098-1.574 3.672 0c1.189 1.189 0.979 2.745 0.35 3.497-0.437 0.525-14.793 14.863-14.793 14.863l-4.669 1.451z"></path>
<path stroke-width="1.7486" stroke-miterlimit="4" stroke-linecap="round" stroke-linejoin="round" d="M12.625 16l3.76 3.305"></path>
<path stroke-width="1.7486" stroke-miterlimit="4" stroke-linecap="round" stroke-linejoin="round" d="M24.428 3.69l3.917 3.637"></path>
</symbol>
<symbol id="icon-caifu" viewBox="0 0 32 32">
<title>caifu</title>
<path stroke-width="2.8070" stroke-miterlimit="4" stroke-linecap="round" stroke-linejoin="round" d="M28.323 24.101c0-6.4-3.172-11.874-7.677-14.161 0.379-0.304 0.619-0.768 0.619-1.287 0-0.081-0.006-0.16-0.017-0.237l0.001 0.009c-0.132-0.8-0.819-1.404-1.646-1.404-0.008 0-0.017 0-0.025 0h0.001c-0.029-0-0.053-0.024-0.053-0.053 0-0.019 0.010-0.035 0.024-0.045l0-0c0.365-0.211 1.263-0.786 2.554-1.979 2.218-2.035 2.316-4.168-0.772-3.172-2.821 0.926-3.186 1.628-5.446 1.628-2.302 0-2.779-1.053-5.249-1.754-2.947-0.842-2.779 0.674-1.614 2.218 0.632 0.842 2.709 2.596 3.27 3.060 0.014 0.013 0.024 0.032 0.024 0.054 0 0.038-0.029 0.069-0.065 0.073l-0 0c-0.829 0.077-1.474 0.769-1.474 1.612 0 0.001 0 0.002 0 0.002v-0c0.006 0.491 0.221 0.93 0.56 1.234l0.002 0.001c-4.547 2.26-7.761 7.761-7.761 14.204 0.001 1.362 0.144 2.69 0.415 3.971l-0.022-0.125s11.846 5.979 23.958-0.042c0.646-0.323 0.393-2.498 0.393-3.803z"></path>
<path stroke-width="1.4035" stroke-miterlimit="4" stroke-linecap="round" stroke-linejoin="round" d="M19.467 14.627l-5.347 0.14c-0.903 0.026-1.626 0.763-1.628 1.67v1.53c0 0.002 0 0.004 0 0.006 0 0.919 0.745 1.665 1.665 1.665 0.002 0 0.004 0 0.006 0h3.635c0.002 0 0.004 0 0.006 0 0.919 0 1.665 0.745 1.665 1.665 0 0.002 0 0.004 0 0.006v-0 2.049c0 0.002 0 0.004 0 0.006 0 0.919-0.745 1.665-1.665 1.665-0.002 0-0.004 0-0.006 0h-5.305"></path>
<path stroke-width="1.4035" stroke-miterlimit="4" stroke-linecap="round" stroke-linejoin="round" d="M16 12.003l-0.056 15.846"></path>
</symbol>
<symbol id="icon-dianyingtuijian" viewBox="0 0 32 32">
<title>dianyingtuijian</title>
<path stroke-width="0.9648" stroke-miterlimit="10" stroke-linecap="butt" stroke-linejoin="miter" d="M14.971 9.52c0 1.226-0.994 2.219-2.219 2.219s-2.219-0.994-2.219-2.219c0-1.226 0.994-2.219 2.219-2.219s2.219 0.994 2.219 2.219z"></path>
<path stroke-width="0.9648" stroke-miterlimit="10" stroke-linecap="butt" stroke-linejoin="miter" d="M14.971 22.432c0 1.226-0.994 2.219-2.219 2.219s-2.219-0.994-2.219-2.219c0-1.226 0.994-2.219 2.219-2.219s2.219 0.994 2.219 2.219z"></path>
<path stroke-width="0.9648" stroke-miterlimit="10" stroke-linecap="butt" stroke-linejoin="miter" d="M8.49 15.968c0 1.226-0.994 2.219-2.219 2.219s-2.219-0.994-2.219-2.219c0-1.226 0.994-2.219 2.219-2.219s2.219 0.994 2.219 2.219z"></path>
<path stroke-width="0.9648" stroke-miterlimit="10" stroke-linecap="butt" stroke-linejoin="miter" d="M21.371 15.968c0 1.226-0.994 2.219-2.219 2.219s-2.219-0.994-2.219-2.219c0-1.226 0.994-2.219 2.219-2.219s2.219 0.994 2.219 2.219z"></path>
<path stroke-width="0.9648" stroke-miterlimit="10" stroke-linecap="butt" stroke-linejoin="miter" d="M25.021 15.968c0 6.776-5.493 12.269-12.269 12.269s-12.269-5.493-12.269-12.269c0-6.776 5.493-12.269 12.269-12.269s12.269 5.493 12.269 12.269z"></path>
<path stroke-width="0.9648" stroke-miterlimit="4" stroke-linecap="round" stroke-linejoin="round" d="M20.277 25.729s2.187-1.27 5.13 0.338 6.062-2.123 6.062-2.123"></path>
</symbol>
<symbol id="icon-fanhui" viewBox="0 0 32 32">
<title>fanhui</title>
<path stroke-width="2.5028" stroke-miterlimit="4" stroke-linecap="round" stroke-linejoin="round" d="M23.544 1.251l-15.053 15.231 15.053 14.302"></path>
</symbol>
<symbol id="icon-fankui" viewBox="0 0 32 32">
<title>fankui</title>
<path d="M25.931 2.097h-19.972c-2.435 0.007-4.406 1.979-4.414 4.413v13.794c0.008 2.435 1.979 4.406 4.413 4.414h7.879l3.090 5.186 3.686-5.186h5.319c2.435-0.008 4.406-1.979 4.414-4.413v-13.794c0-2.438-1.976-4.414-4.414-4.414v0z"></path>
<path fill="none" stroke="#000" stroke-width="3.0897" stroke-miterlimit="4" stroke-linecap="round" stroke-linejoin="round" style="stroke: var(--color1, #000)" d="M9.446 12.712c0 0.622-0.504 1.126-1.126 1.126s-1.126-0.504-1.126-1.126c0-0.622 0.504-1.126 1.126-1.126s1.126 0.504 1.126 1.126z"></path>
<path fill="none" stroke="#000" stroke-width="1.3241" stroke-miterlimit="10" stroke-linecap="butt" stroke-linejoin="miter" style="stroke: var(--color1, #000)" d="M17.059 12.712c0 0.622-0.504 1.126-1.126 1.126s-1.126-0.504-1.126-1.126c0-0.622 0.504-1.126 1.126-1.126s1.126 0.504 1.126 1.126z"></path>
<path fill="none" stroke="#000" stroke-width="1.3241" stroke-miterlimit="10" stroke-linecap="butt" stroke-linejoin="miter" style="stroke: var(--color1, #000)" d="M24.695 12.712c0 0.622-0.504 1.126-1.126 1.126s-1.126-0.504-1.126-1.126c0-0.622 0.504-1.126 1.126-1.126s1.126 0.504 1.126 1.126z"></path>
</symbol>
<symbol id="icon-guanyuwomen" viewBox="0 0 32 32">
<title>guanyuwomen</title>
<path d="M24.396 14.708c0.222-0.173 0.364-0.441 0.364-0.742 0-0.098-0.015-0.193-0.043-0.282l0.002 0.007c-0.048-0.178-0.274-0.549-0.872-0.597l-4.763-0.404c-0.166-0.021-0.304-0.127-0.37-0.272l-0.001-0.003-1.986-4.698c-0.274-0.597-0.694-0.646-0.872-0.646s-0.597 0.048-0.872 0.646l-1.986 4.698c-0.077 0.14-0.21 0.241-0.368 0.274l-0.004 0.001-4.747 0.371c-0.646 0.048-0.823 0.468-0.872 0.597-0.027 0.083-0.043 0.179-0.043 0.279 0 0.3 0.143 0.567 0.364 0.737l0.002 0.002 3.6 3.277c0.093 0.106 0.149 0.246 0.149 0.399 0 0.024-0.001 0.049-0.004 0.072l0-0.003-1.146 4.94c-0.025 0.084-0.039 0.181-0.039 0.282 0 0.221 0.069 0.425 0.186 0.594l-0.002-0.003c0.177 0.189 0.429 0.307 0.707 0.307 0.2 0 0.385-0.060 0.539-0.164l-0.003 0.002 4.343-2.632c0.066-0.023 0.143-0.040 0.222-0.048l0.004-0c0.083 0.008 0.16 0.025 0.233 0.051l-0.007-0.002 4.343 2.632c0.154 0.112 0.347 0.178 0.556 0.178 0.015 0 0.029-0 0.044-0.001l-0.002 0c0.014 0.001 0.030 0.001 0.046 0.001 0.25 0 0.47-0.128 0.598-0.322l0.002-0.003c0.127-0.15 0.204-0.345 0.204-0.559 0-0.113-0.021-0.22-0.061-0.319l0.002 0.006-1.146-4.94c-0.004-0.026-0.007-0.057-0.007-0.087 0-0.148 0.058-0.282 0.152-0.381l-0 0 3.552-3.245zM19.907 17.017c-0.339 0.328-0.549 0.787-0.549 1.295 0 0.148 0.018 0.292 0.051 0.429l-0.003-0.012 0.969 4.052-3.6-2.115c-0.246-0.143-0.541-0.227-0.856-0.227-0.023 0-0.045 0-0.068 0.001l0.003-0c-0.336 0.002-0.653 0.085-0.931 0.231l0.011-0.005-3.552 2.163 0.969-4.052c0.023-0.111 0.036-0.239 0.036-0.37 0-0.52-0.204-0.993-0.537-1.342l0.001 0.001-2.955-2.712 3.923-0.371c0.655-0.077 1.2-0.487 1.464-1.054l0.005-0.011 1.615-3.826 1.615 3.826c0.275 0.574 0.816 0.982 1.46 1.065l0.009 0.001 3.923 0.371-3.003 2.664z"></path>
<path fill="none" stroke="#000" stroke-width="2.2603" stroke-miterlimit="10" stroke-linecap="butt" stroke-linejoin="miter" style="stroke: var(--color1, #000)" d="M30.87 16c0 8.212-6.657 14.87-14.87 14.87s-14.87-6.657-14.87-14.87c0-8.212 6.657-14.87 14.87-14.87s14.87 6.657 14.87 14.87z"></path>
</symbol>
<symbol id="icon-huancun" viewBox="0 0 32 32">
<title>huancun</title>
<path stroke-width="2.5941" stroke-miterlimit="10" stroke-linecap="butt" stroke-linejoin="miter" d="M26.089 30.703h-20.16c-2.558 0-4.632-2.074-4.632-4.632v0-20.141c0-2.558 2.074-4.632 4.632-4.632v0h20.16c2.558 0 4.632 2.074 4.632 4.632v0 20.141c0 2.558-2.074 4.632-4.632 4.632v0z"></path>
<path stroke-width="1.6083" stroke-miterlimit="4" stroke-linecap="round" stroke-linejoin="round" d="M8.338 14.286l7.671 7.634 7.69-7.634"></path>
<path stroke-width="1.6083" stroke-miterlimit="4" stroke-linecap="round" stroke-linejoin="round" d="M16.009 6.652v15.268"></path>
<path stroke-width="1.6083" stroke-miterlimit="4" stroke-linecap="round" stroke-linejoin="round" d="M7.56 21.92v3.409h16.917v-3.409"></path>
</symbol>
<symbol id="icon-nicheng" viewBox="0 0 32 32">
<title>nicheng</title>
<path stroke-width="1.5686" stroke-miterlimit="10" stroke-linecap="butt" stroke-linejoin="miter" d="M15.388 18.776c-4.965-0.004-8.988-4.030-8.988-8.996 0-4.968 4.028-8.996 8.996-8.996s8.996 4.028 8.996 8.996c0 0.003 0 0.006 0 0.008v-0c-0.009 4.966-4.037 8.988-9.004 8.988 0 0 0 0-0 0v0"></path>
<path stroke-width="1.5686" stroke-miterlimit="4" stroke-linecap="round" stroke-linejoin="round" d="M2.306 31.231c-0.016-0.267-0.031-0.533-0.031-0.8 0-6.411 5.197-11.608 11.608-11.608v0"></path>
<path stroke-width="1.5686" stroke-miterlimit="4" stroke-linecap="round" stroke-linejoin="round" d="M18.055 21.224h7.937"></path>
<path stroke-width="1.5686" stroke-miterlimit="4" stroke-linecap="round" stroke-linejoin="round" d="M18.055 25.773h9.239"></path>
<path stroke-width="1.5686" stroke-miterlimit="4" stroke-linecap="round" stroke-linejoin="round" d="M17.929 30.729h11.843"></path>
</symbol>
<symbol id="icon-qiehuan" viewBox="0 0 32 32">
<title>qiehuan</title>
<path d="M32.002 16.001v-1.147c0-0.631-0.512-1.143-1.143-1.143s-1.143 0.512-1.143 1.143v0 1.147c0 0.001 0 0.001 0 0.002 0 4.418-3.581 7.999-7.999 7.999-0.001 0-0.001 0-0.002 0h-13.141c-0.016-0.001-0.034-0.001-0.052-0.001s-0.037 0-0.055 0.002l0.002-0 3.765-3.765c0.207-0.207 0.335-0.493 0.335-0.809s-0.128-0.602-0.335-0.809v0c-0.204-0.207-0.488-0.335-0.801-0.335-0.002 0-0.004 0-0.005 0h0c-0.315 0.001-0.6 0.129-0.806 0.336l-5.715 5.715c-0.207 0.207-0.335 0.493-0.335 0.809s0.128 0.602 0.335 0.809l5.715 5.715c0.209 0.22 0.504 0.357 0.83 0.357 0.632 0 1.145-0.513 1.145-1.145 0-0.327-0.137-0.621-0.356-0.83l-3.769-3.769h13.245c5.676-0.004 10.277-4.603 10.284-10.278v-0.001zM0 16.001v1.143c0 0.631 0.512 1.143 1.143 1.143s1.143-0.512 1.143-1.143v0-1.143c0.001-4.417 3.582-7.997 7.999-7.997 0.001 0 0.001 0 0.002 0h13.141c0.016 0.001 0.034 0.001 0.052 0.001s0.037-0.001 0.055-0.002l-0.003 0-3.765 3.762c-0.207 0.207-0.335 0.493-0.335 0.809s0.128 0.602 0.335 0.809v0c0.204 0.207 0.488 0.335 0.801 0.335 0.002 0 0.004 0 0.006 0h-0c0.315-0.001 0.6-0.129 0.806-0.336l5.715-5.715c0.207-0.207 0.335-0.493 0.335-0.809s-0.128-0.602-0.335-0.809v0l-5.715-5.713c-0.205-0.195-0.483-0.315-0.788-0.315-0.632 0-1.145 0.513-1.145 1.145 0 0.306 0.12 0.583 0.315 0.789l3.768 3.768h-13.243c-5.676 0.003-10.278 4.601-10.286 10.276v0.001z"></path>
</symbol>
<symbol id="icon-qingchu" viewBox="0 0 32 32">
<title>qingchu</title>
<path stroke-width="2.4751" stroke-miterlimit="4" stroke-linecap="round" stroke-linejoin="round" d="M1.238 6.895h29.525"></path>
<path stroke-width="2.4751" stroke-miterlimit="4" stroke-linecap="round" stroke-linejoin="round" d="M23.549 6.188v-0.972c-0.006-1.95-1.585-3.53-3.535-3.536h-8.045c-1.95 0.006-3.53 1.585-3.536 3.535v0.973"></path>
<path stroke-width="2.4751" stroke-miterlimit="4" stroke-linecap="round" stroke-linejoin="round" d="M6.223 11.668v15.028c0.006 1.95 1.585 3.53 3.535 3.536h12.465c1.95-0.006 3.53-1.585 3.536-3.535v-15.028"></path>
<path stroke-width="2.4751" stroke-miterlimit="4" stroke-linecap="round" stroke-linejoin="round" d="M19.271 11.668v12.729"></path>
<path stroke-width="2.4751" stroke-miterlimit="4" stroke-linecap="round" stroke-linejoin="round" d="M12.729 11.668v12.729"></path>
</symbol>
<symbol id="icon-riqi" viewBox="0 0 32 32">
<title>riqi</title>
<path stroke-width="1.641" stroke-miterlimit="10" stroke-linecap="butt" stroke-linejoin="miter" d="M26.634 31.097h-21.218c-2.263-0.006-4.096-1.839-4.103-4.102v-18.397c0-2.266 1.837-4.103 4.103-4.103v0h21.218c2.263 0.006 4.096 1.839 4.103 4.102v18.397c0 2.266-1.837 4.103-4.103 4.103v0z"></path>
<path stroke-width="1.641" stroke-miterlimit="4" stroke-linecap="round" stroke-linejoin="round" d="M1.428 13.046h29.21"></path>
<path stroke-width="1.641" stroke-miterlimit="4" stroke-linecap="round" stroke-linejoin="round" d="M8.976 0.821v7.877"></path>
<path stroke-width="1.641" stroke-miterlimit="4" stroke-linecap="round" stroke-linejoin="round" d="M23.089 0.821v7.877"></path>
<path stroke-width="1.641" stroke-miterlimit="4" stroke-linecap="round" stroke-linejoin="round" d="M7.007 18.872h1.969"></path>
<path stroke-width="1.641" stroke-miterlimit="4" stroke-linecap="round" stroke-linejoin="round" d="M15.015 18.872h1.969"></path>
<path stroke-width="1.641" stroke-miterlimit="4" stroke-linecap="round" stroke-linejoin="round" d="M23.089 18.872h1.969"></path>
<path stroke-width="1.641" stroke-miterlimit="4" stroke-linecap="round" stroke-linejoin="round" d="M7.007 23.713h1.969"></path>
<path stroke-width="1.641" stroke-miterlimit="4" stroke-linecap="round" stroke-linejoin="round" d="M15.015 23.713h1.969"></path>
<path stroke-width="1.641" stroke-miterlimit="4" stroke-linecap="round" stroke-linejoin="round" d="M23.089 23.713h1.969"></path>
</symbol>
<symbol id="icon-shiye" viewBox="0 0 32 32">
<title>shiye</title>
<path stroke-width="3.4225" stroke-miterlimit="4" stroke-linecap="round" stroke-linejoin="round" d="M28.15 28.749h-24.385c-1.134 0-2.053-0.919-2.053-2.053v0-16.342c0-1.134 0.919-2.053 2.053-2.053v0h24.385c1.134 0 2.053 0.919 2.053 2.053v0 16.342c0 1.134-0.919 2.053-2.053 2.053v0z"></path>
<path stroke-width="3.4225" stroke-miterlimit="4" stroke-linecap="round" stroke-linejoin="round" d="M21.442 8.299h-10.952c-1.134 0-2.053-0.919-2.053-2.053v0-1.027c0-1.134 0.919-2.053 2.053-2.053v0h10.952c1.134 0 2.053 0.919 2.053 2.053v0 1.027c0 1.134-0.919 2.053-2.053 2.053v0z"></path>
<path stroke-width="1.7112" stroke-miterlimit="4" stroke-linecap="round" stroke-linejoin="round" d="M1.711 17.797h28.492"></path>
<path stroke-width="1.7112" stroke-miterlimit="4" stroke-linecap="round" stroke-linejoin="round" d="M23.238 14.99l-0.017 5.647"></path>
<path stroke-width="1.7112" stroke-miterlimit="4" stroke-linecap="round" stroke-linejoin="round" d="M8.71 14.99l-0.017 5.647"></path>
</symbol>
<symbol id="icon-shoucang" viewBox="0 0 32 32">
<title>shoucang</title>
<path stroke-width="2.2974" stroke-miterlimit="4" stroke-linecap="round" stroke-linejoin="round" d="M11.236 9.195l3.266-6.712c0.272-0.552 0.831-0.926 1.477-0.926s1.205 0.373 1.473 0.916l0.004 0.010 3.266 6.712c0.243 0.485 0.706 0.829 1.255 0.902l0.008 0.001 7.483 0.985c0.813 0.106 1.434 0.795 1.434 1.628 0 0.462-0.191 0.88-0.498 1.178l-0 0-5.497 5.35c-0.308 0.301-0.499 0.721-0.499 1.185 0 0.097 0.008 0.192 0.024 0.285l-0.001-0.010 1.378 7.729c0.015 0.084 0.024 0.181 0.024 0.281 0 0.906-0.735 1.641-1.641 1.641-0.299 0-0.579-0.080-0.82-0.219l0.008 0.004-6.597-3.758c-0.232-0.132-0.509-0.209-0.804-0.209s-0.572 0.078-0.812 0.214l0.008-0.004-6.695 3.774c-0.23 0.131-0.506 0.208-0.8 0.208-0.906 0-1.641-0.735-1.641-1.641 0-0.108 0.011-0.215 0.031-0.317l-0.002 0.010 1.46-7.713c0.019-0.093 0.029-0.199 0.029-0.308 0-0.457-0.187-0.871-0.489-1.168l-0-0-5.432-5.333c-0.299-0.297-0.484-0.709-0.484-1.164 0-0.828 0.613-1.513 1.411-1.625l0.009-0.001 7.401-0.985c0.562-0.072 1.029-0.424 1.259-0.909l0.004-0.010z"></path>
<path stroke-width="1.641" stroke-miterlimit="4" stroke-linecap="round" stroke-linejoin="round" d="M11.646 16.448c0-2.266 1.837-4.103 4.103-4.103v0"></path>
</symbol>
<symbol id="icon-weixuanzhong" viewBox="0 0 32 32">
<title>weixuanzhong</title>
<path stroke-width="1.6285" stroke-miterlimit="4" stroke-linecap="round" stroke-linejoin="round" d="M27.929 31.186h-23.858c-1.797-0.006-3.251-1.46-3.257-3.256v-23.858c0.006-1.797 1.46-3.251 3.256-3.257h23.858c1.797 0.006 3.251 1.46 3.257 3.256v23.858c-0.006 1.797-1.46 3.251-3.256 3.257h-0.001z"></path>
</symbol>
<symbol id="icon-wushoucang" viewBox="0 0 32 32">
<title>wushoucang</title>
<path stroke-width="0.3478" stroke-miterlimit="10" stroke-linecap="butt" stroke-linejoin="miter" d="M11.165 15.137l-1.043 6.122c-0.002 0.015-0.003 0.031-0.003 0.049 0 0.192 0.156 0.348 0.348 0.348 0.065 0 0.127-0.018 0.179-0.049l-0.002 0.001 5.426-2.922 5.53 2.922c0.043 0.020 0.093 0.032 0.146 0.032 0.192 0 0.348-0.156 0.348-0.348 0-0.024-0.002-0.047-0.007-0.069l0 0.002-1.183-6.122 4.487-4.383c0.063-0.063 0.101-0.15 0.101-0.246 0-0.179-0.135-0.326-0.309-0.346l-0.002-0-6.157-0.765-2.713-5.53c-0.058-0.117-0.176-0.196-0.313-0.196s-0.255 0.079-0.312 0.194l-0.001 0.002-2.678 5.496-6.087 0.87c-0.175 0.020-0.31 0.167-0.31 0.346 0 0.096 0.039 0.183 0.101 0.246v0z"></path>
<path stroke-width="0.3478" stroke-miterlimit="4" stroke-linecap="round" stroke-linejoin="round" d="M13.53 13.155c0.006-1.362 1.108-2.464 2.469-2.47h0.001"></path>
<path stroke-width="0.3478" stroke-miterlimit="4" stroke-linecap="round" stroke-linejoin="round" d="M9.078 25.193h14.887"></path>
<path stroke-width="0.3478" stroke-miterlimit="4" stroke-linecap="round" stroke-linejoin="round" d="M6.609 23.555h4.070"></path>
<path stroke-width="0.3478" stroke-miterlimit="4" stroke-linecap="round" stroke-linejoin="round" d="M3.861 23.555h1.496"></path>
<path stroke-width="0.3478" stroke-miterlimit="4" stroke-linecap="round" stroke-linejoin="round" d="M22.435 23.555h3.235"></path>
<path stroke-width="0.3478" stroke-miterlimit="4" stroke-linecap="round" stroke-linejoin="round" d="M18.957 26.793h8.591"></path>
<path stroke-width="0.3478" stroke-miterlimit="4" stroke-linecap="round" stroke-linejoin="round" d="M29.774 26.793h2.087"></path>
<path stroke-width="0.3478" stroke-miterlimit="4" stroke-linecap="round" stroke-linejoin="round" d="M0.174 28.424h11.548"></path>
<path stroke-width="0.3478" stroke-miterlimit="4" stroke-linecap="round" stroke-linejoin="round" d="M14.052 28.424h1.983"></path>
</symbol>
<symbol id="icon-xiayibu" viewBox="0 0 32 32">
<title>xiayibu</title>
<path stroke-width="2.4086" stroke-miterlimit="4" stroke-linecap="round" stroke-linejoin="round" d="M8.688 1.204l14.624 14.968-14.624 14.624"></path>
</symbol>
<symbol id="icon-xingxing" viewBox="0 0 32 32">
<title>xingxing</title>
<path d="M31.897 12.141c0-1.871-10.682-2.151-10.682-2.151s-3.087-9.99-5.276-9.99-5.257 9.99-5.257 9.99-10.682-0.037-10.682 2.151 7.427 8.325 7.427 8.325-2.432 10.177-1.347 11.337 9.859-4.845 9.859-4.845 8.568 6.211 9.859 4.845-1.347-11.318-1.347-11.318 7.446-6.454 7.446-8.344zM13.825 14.087c-4.621 1.852-8.138 0.299-9.017 0.019-0.992-0.318-1.628-0.636-1.253-1.141s2.9-0.337 4.004-0.43c1.293-0.091 2.493-0.297 3.649-0.61l-0.132 0.031c2.844-0.748 3.798-4.845 4.060-6.81 0.318-2.395 1.366-2.694 1.59-1.31 0.561 3.367 0.786 8.774-2.9 10.252z"></path>
</symbol>
<symbol id="icon-xingzuoaiqing" viewBox="0 0 32 32">
<title>xingzuoaiqing</title>
<path stroke-width="0.9846" stroke-miterlimit="4" stroke-linecap="round" stroke-linejoin="round" d="M21.854 28.124l7.68-7.68c0.639-0.644 1.034-1.531 1.034-2.511s-0.395-1.867-1.034-2.511l0 0c-0.644-0.639-1.531-1.034-2.511-1.034s-1.867 0.395-2.511 1.034l-2.74 2.74"></path>
<path stroke-width="0.9846" stroke-miterlimit="4" stroke-linecap="round" stroke-linejoin="round" d="M21.739 28.124l-7.68-7.68c-0.639-0.644-1.034-1.531-1.034-2.511s0.395-1.867 1.034-2.511l-0 0c0.644-0.639 1.531-1.034 2.511-1.034s1.867 0.395 2.511 1.034l2.707 2.707"></path>
<path stroke-width="0.9846" stroke-miterlimit="4" stroke-linecap="round" stroke-linejoin="round" d="M30.928 12.698c0.348-0.756 0.551-1.641 0.551-2.573 0-1.731-0.699-3.298-1.831-4.434l0 0c-1.137-1.133-2.706-1.834-4.439-1.834s-3.302 0.7-4.439 1.834l-4.824 4.824"></path>
<path stroke-width="0.9846" stroke-miterlimit="4" stroke-linecap="round" stroke-linejoin="round" d="M15.88 28.124l-13.555-13.555c-1.133-1.137-1.834-2.706-1.834-4.439s0.701-3.302 1.834-4.439l-0 0c1.137-1.133 2.706-1.834 4.439-1.834s3.302 0.7 4.439 1.834l4.792 4.792"></path>
</symbol>
<symbol id="icon-xingzuotezheng" viewBox="0 0 32 32">
<title>xingzuotezheng</title>
<path stroke-width="1.1034" stroke-miterlimit="10" stroke-linecap="butt" stroke-linejoin="miter" d="M2.030 7.941h27.936c0.201 0.003 0.362 0.167 0.362 0.368 0 0.068-0.018 0.131-0.050 0.186l0.001-0.002-13.867 22.749c-0.066 0.105-0.181 0.174-0.313 0.174s-0.247-0.069-0.312-0.173l-0.001-0.002-14.069-22.731c-0.038-0.057-0.061-0.127-0.061-0.202 0-0.203 0.165-0.368 0.368-0.368 0.002 0 0.004 0 0.006 0h-0z"></path>
<path stroke-width="1.1034" stroke-miterlimit="10" stroke-linecap="butt" stroke-linejoin="miter" d="M29.948 24.033h-27.917c-0.201-0.003-0.362-0.167-0.362-0.368 0-0.068 0.018-0.131 0.050-0.186l-0.001 0.002 13.867-22.749c0.066-0.105 0.181-0.174 0.313-0.174s0.247 0.069 0.312 0.173l0.001 0.002 14.069 22.749c0.031 0.053 0.049 0.116 0.049 0.184 0 0.203-0.165 0.368-0.368 0.368-0.004 0-0.009-0-0.013-0l0.001 0z"></path>
</symbol>
<symbol id="icon-xuanzhong" viewBox="0 0 32 32">
<title>xuanzhong</title>
<path stroke-width="1.6244" stroke-miterlimit="4" stroke-linecap="round" stroke-linejoin="round" d="M27.939 31.188h-23.878c-1.792-0.006-3.243-1.457-3.249-3.248v-23.879c0.006-1.792 1.457-3.243 3.248-3.249h23.879c1.792 0.006 3.243 1.457 3.249 3.248v23.879c-0.006 1.792-1.457 3.243-3.248 3.249h-0.001z"></path>
<path stroke-width="1.6244" stroke-miterlimit="4" stroke-linecap="round" stroke-linejoin="round" d="M5.766 18.193l7.732 6.010 12.735-16.406"></path>
</symbol>
<symbol id="icon-yinyuefengge" viewBox="0 0 32 32">
<title>yinyuefengge</title>
<path stroke-width="1" stroke-miterlimit="10" stroke-linecap="butt" stroke-linejoin="miter" d="M12.5 23.8c0 3.314-2.686 6-6 6s-6-2.686-6-6c0-3.314 2.686-6 6-6s6 2.686 6 6z"></path>
<path stroke-width="1" stroke-miterlimit="4" stroke-linecap="round" stroke-linejoin="round" d="M22.217 2.25h-6.383c-1.839 0.006-3.328 1.495-3.333 3.333v18.551"></path>
<path stroke-width="1" stroke-miterlimit="4" stroke-linecap="round" stroke-linejoin="round" d="M19.050 9.133h12.4"></path>
<path stroke-width="1" stroke-miterlimit="4" stroke-linecap="round" stroke-linejoin="round" d="M19.050 15.4h12.4"></path>
<path stroke-width="1" stroke-miterlimit="4" stroke-linecap="round" stroke-linejoin="round" d="M19.050 22.083h12.4"></path>
</symbol>
<symbol id="icon-yunshi" viewBox="0 0 32 32">
<title>yunshi</title>
<path stroke-width="4.0252" stroke-miterlimit="4" stroke-linecap="round" stroke-linejoin="round" d="M2.013 5.233v21.454h27.914"></path>
<path stroke-width="4.0252" stroke-miterlimit="4" stroke-linecap="round" stroke-linejoin="round" d="M10.063 16.825v9.862"></path>
<path stroke-width="4.0252" stroke-miterlimit="4" stroke-linecap="round" stroke-linejoin="round" d="M16.181 13.102l0.302 13.585"></path>
<path stroke-width="4.0252" stroke-miterlimit="4" stroke-linecap="round" stroke-linejoin="round" d="M22.138 17.228v9.459"></path>
<path stroke-width="2.0126" stroke-miterlimit="4" stroke-linecap="round" stroke-linejoin="round" d="M2.013 12.961l11.472-7.728 6.641 5.555 8.433-5.555"></path>
</symbol>
<symbol id="icon-baiyang" viewBox="0 0 31 32">
<title>baiyang</title>
<path stroke-width="1.7189" stroke-miterlimit="4" stroke-linecap="round" stroke-linejoin="round" d="M0.859 7.162s0.172-5.586 6.532-6.274 8.165 10.915 8.165 10.915v19.337"></path>
<path stroke-width="1.7189" stroke-miterlimit="4" stroke-linecap="round" stroke-linejoin="round" d="M30.252 7.162s-0.172-5.586-6.532-6.274-8.165 10.915-8.165 10.915v19.337"></path>
</symbol>
<symbol id="icon-chunv" viewBox="0 0 32 32">
<title>chunv</title>
<path stroke-width="1.7247" stroke-miterlimit="4" stroke-linecap="round" stroke-linejoin="round" d="M9.727 2.956c0-1.153-0.934-2.087-2.087-2.087s-2.087 0.934-2.087 2.087v0 22.197s-0.052 5.674-4.691 5.967"></path>
<path stroke-width="1.7247" stroke-miterlimit="4" stroke-linecap="round" stroke-linejoin="round" d="M13.918 2.956c0-1.153-0.934-2.087-2.087-2.087s-2.087 0.934-2.087 2.087v0 25.888"></path>
<path stroke-width="1.7247" stroke-miterlimit="4" stroke-linecap="round" stroke-linejoin="round" d="M13.918 28.844v-25.888c0-1.153 0.934-2.087 2.087-2.087s2.087 0.934 2.087 2.087v0 16.85s-0.983 11.452 13.125 11.314"></path>
<path stroke-width="1.7247" stroke-miterlimit="4" stroke-linecap="round" stroke-linejoin="round" d="M1.018 0.869s3.329-0.328 4.432 3.346"></path>
<path stroke-width="1.7247" stroke-miterlimit="4" stroke-linecap="round" stroke-linejoin="round" d="M18.109 9.406s1.431-6.192 6.347-5.95 5.364 6.14 5.26 8.382c-0.103 2.363-0.949 8.192-7.744 16.281-1.707 2.035-3.984 2.639-5.726 3.018"></path>
</symbol>
<symbol id="icon-jinniu" viewBox="0 0 34 32">
<title>jinniu</title>
<path stroke-width="1.7641" stroke-miterlimit="10" stroke-linecap="butt" stroke-linejoin="miter" d="M29.46 18.628c0 6.898-5.592 12.49-12.49 12.49s-12.49-5.592-12.49-12.49c0-6.898 5.592-12.49 12.49-12.49s12.49 5.592 12.49 12.49z"></path>
<path stroke-width="1.7641" stroke-miterlimit="4" stroke-linecap="round" stroke-linejoin="round" d="M0.882 1.041s2.117-1.058 3.793 2.293 3.369 3.969 6.051 4.498"></path>
<path stroke-width="1.7641" stroke-miterlimit="4" stroke-linecap="round" stroke-linejoin="round" d="M33.058 1.041s-2.117-1.058-3.793 2.293-3.369 3.969-6.051 4.498"></path>
</symbol>
<symbol id="icon-juxie" viewBox="0 0 35 32">
<title>juxie</title>
<path stroke-width="1.9028" stroke-miterlimit="10" stroke-linecap="butt" stroke-linejoin="miter" d="M15.070 12.671c0 3.899-3.161 7.060-7.060 7.060s-7.060-3.161-7.060-7.060c0-3.899 3.161-7.060 7.060-7.060s7.060 3.161 7.060 7.060z"></path>
<path stroke-width="1.9028" stroke-miterlimit="4" stroke-linecap="round" stroke-linejoin="round" d="M34.156 8.789s-15.946-17.506-31.911-0.19"></path>
<path stroke-width="1.9028" stroke-miterlimit="10" stroke-linecap="butt" stroke-linejoin="miter" d="M34.156 19.331c0 3.899-3.161 7.060-7.060 7.060s-7.060-3.161-7.060-7.060c0-3.899 3.161-7.060 7.060-7.060s7.060 3.161 7.060 7.060z"></path>
<path stroke-width="1.9028" stroke-miterlimit="4" stroke-linecap="round" stroke-linejoin="round" d="M0.951 23.213s15.946 17.506 31.911 0.19"></path>
</symbol>
<symbol id="icon-mojie" viewBox="0 0 31 32">
<title>mojie</title>
<path stroke-width="1.7027" stroke-miterlimit="10" stroke-linecap="butt" stroke-linejoin="miter" d="M30.018 17.289c0 2.539-2.058 4.597-4.597 4.597s-4.597-2.058-4.597-4.597c0-2.539 2.058-4.597 4.597-4.597s4.597 2.058 4.597 4.597z"></path>
<path stroke-width="1.7027" stroke-miterlimit="4" stroke-linecap="round" stroke-linejoin="round" d="M0.851 1.352s4.376 1.243 4.308 6.692 0 20.943 0 20.943"></path>
<path stroke-width="1.7027" stroke-miterlimit="4" stroke-linecap="round" stroke-linejoin="round" d="M13.894 31.149s7.236-3.678 7.781-7.373c0.477-3.252-0.851-4.546-3.116-5.738s-3.525-3.014-2.162-6.13 2.843-7.543-1.652-10.165-9.109 0.954-9.637 5.329"></path>
</symbol>
<symbol id="icon-sheshou" viewBox="0 0 31 32">
<title>sheshou</title>
<path stroke-width="1.7297" stroke-miterlimit="4" stroke-linecap="round" stroke-linejoin="round" d="M18.162 0.865h12.368v12.886"></path>
<path stroke-width="1.7297" stroke-miterlimit="4" stroke-linecap="round" stroke-linejoin="round" d="M0.865 31.135l29.665-30.27"></path>
<path stroke-width="1.7297" stroke-miterlimit="4" stroke-linecap="round" stroke-linejoin="round" d="M9.341 9.341l12.886 13.059"></path>
</symbol>
<symbol id="icon-shizi" viewBox="0 0 27 32">
<title>shizi</title>
<path stroke-width="1.723" stroke-miterlimit="10" stroke-linecap="butt" stroke-linejoin="miter" d="M12.44 20.404c0 3.197-2.592 5.789-5.789 5.789s-5.789-2.592-5.789-5.789c0-3.197 2.592-5.789 5.789-5.789s5.789 2.592 5.789 5.789z"></path>
<path stroke-width="1.723" stroke-miterlimit="4" stroke-linecap="round" stroke-linejoin="round" d="M26.052 26.883s0.103 4.256-4.084 4.256c-3.791 0-5.393-3.256-4.704-6.151 0.638-2.705 2.343-5.772 5.048-8.27 2.981-2.757 5.565-6.427 2.361-12.009s-10.855-4.652-12.699 0c-1.361 3.463-0.345 4.532-0.913 7.116-0.379 1.723-0.517 2.292-1.947 3.325"></path>
</symbol>
<symbol id="icon-shuangyu" viewBox="0 0 28 32">
<title>shuangyu</title>
<path stroke-width="1.7204" stroke-miterlimit="4" stroke-linecap="round" stroke-linejoin="round" d="M0.86 0.86c4.903 2.151 8.43 8.12 8.43 15.14s-3.527 12.989-8.43 15.14"></path>
<path stroke-width="1.7204" stroke-miterlimit="4" stroke-linecap="round" stroke-linejoin="round" d="M26.753 0.86c-4.903 2.151-8.43 8.12-8.43 15.14s3.527 12.989 8.43 15.14"></path>
<path stroke-width="1.7204" stroke-miterlimit="4" stroke-linecap="round" stroke-linejoin="round" d="M0.86 16l25.892 0.017"></path>
</symbol>
<symbol id="icon-shuangzi" viewBox="0 0 32 32">
<title>shuangzi</title>
<path stroke-width="1.7448" stroke-miterlimit="4" stroke-linecap="round" stroke-linejoin="round" d="M0.872 0.872s12.563 4.31 30.133 0"></path>
<path stroke-width="1.7448" stroke-miterlimit="4" stroke-linecap="round" stroke-linejoin="round" d="M0.872 31.128s12.563-4.31 30.133 0"></path>
<path stroke-width="1.7448" stroke-miterlimit="4" stroke-linecap="round" stroke-linejoin="round" d="M11.341 2.792v26.504"></path>
<path stroke-width="1.7448" stroke-miterlimit="4" stroke-linecap="round" stroke-linejoin="round" d="M20.519 2.792v26.504"></path>
</symbol>
<symbol id="icon-shuiping" viewBox="0 0 64 32">
<title>shuiping</title>
<path stroke-width="3.0511" stroke-miterlimit="4" stroke-linecap="round" stroke-linejoin="round" d="M1.526 7.789c4.607-7.75 15.805-7.628 20.229 0.183v0c4.485 7.811 15.774 7.872 20.29 0.061l0.397-0.671c4.455-7.658 15.469-7.811 20.107-0.275"></path>
<path stroke-width="3.0511" stroke-miterlimit="4" stroke-linecap="round" stroke-linejoin="round" d="M1.526 24.387c4.607-7.75 15.805-7.628 20.229 0.183v0c4.455 7.841 15.774 7.872 20.29 0.092l0.397-0.671c4.455-7.658 15.469-7.811 20.107-0.275"></path>
</symbol>
<symbol id="icon-tianpin" viewBox="0 0 38 32">
<title>tianpin</title>
<path stroke-width="2.0101" stroke-miterlimit="4" stroke-linecap="round" stroke-linejoin="round" d="M1.005 23.578h10.633c-3.173-2.285-5.214-5.969-5.214-10.129 0-6.874 5.572-12.446 12.446-12.446s12.445 5.572 12.446 12.445v0c0 0.002 0 0.005 0 0.007 0 4.127-1.976 7.792-5.033 10.101l-0.032 0.023h10.352"></path>
<path stroke-width="2.0101" stroke-miterlimit="4" stroke-linecap="round" stroke-linejoin="round" d="M1.005 30.995h35.578"></path>
</symbol>
<symbol id="icon-tianxie" viewBox="0 0 32 32">
<title>tianxie</title>
<path stroke-width="1.7238" stroke-miterlimit="4" stroke-linecap="round" stroke-linejoin="round" d="M3.741 29.063v-23.116c0-2.568 1.827-4.654 4.085-4.654s4.413 2.086 4.413 4.654v23.116"></path>
<path stroke-width="1.7238" stroke-miterlimit="4" stroke-linecap="round" stroke-linejoin="round" d="M12.239 29.063v-23.116c0-2.568 1.827-4.654 4.085-4.654s4.085 2.086 4.085 4.654l0.328 18.462s-0.155 5.051 3.12 6.43 5.464-2.293 5.395-4.878"></path>
<path stroke-width="1.7238" stroke-miterlimit="4" stroke-linecap="round" stroke-linejoin="round" d="M26.96 26.891l2.293-2.069 2.189 2.069"></path>
<path stroke-width="1.7238" stroke-miterlimit="4" stroke-linecap="round" stroke-linejoin="round" d="M0.862 0.862s2.655 1.482 2.861 5.051"></path>
</symbol>
<symbol id="icon-baodian" viewBox="0 0 31 32">
<title>baodian</title>
<path stroke-width="1.1034" stroke-miterlimit="4" stroke-linecap="round" stroke-linejoin="round" d="M9.251 8.791h12.598l-6.308 10.483-6.29-10.483z"></path>
<path stroke-width="1.1034" stroke-miterlimit="4" stroke-linecap="round" stroke-linejoin="round" d="M9.251 15.779h12.598l-6.308-10.483-6.29 10.483z"></path>
<path stroke-width="1.8391" stroke-miterlimit="4" stroke-linecap="round" stroke-linejoin="round" d="M27.384 27.145c0.003-1.55 1.248-2.808 2.793-2.832l0.002-0v-23.393h-25.582c-2.029 0.006-3.672 1.649-3.678 3.678v22.805c0.006 2.029 1.649 3.672 3.678 3.678h25.582v-1.103c-1.548-0.018-2.795-1.276-2.795-2.826 0-0.002 0-0.004 0-0.006v0z"></path>
<path stroke-width="1.8391" stroke-miterlimit="4" stroke-linecap="round" stroke-linejoin="round" d="M27.347 27.218c0.001-1.564 1.268-2.831 2.832-2.832h0v-1.030h-25.582c-2.029 0.006-3.672 1.649-3.678 3.678v0.368c0.006 2.029 1.649 3.672 3.678 3.678h25.582v-1.030c-1.564-0.001-2.831-1.268-2.832-2.832v-0z"></path>
</symbol>
<symbol id="icon-baodianshi" viewBox="0 0 31 32">
<title>baodianshi</title>
<path fill="#32e4ea" style="fill: var(--color2, #32e4ea)" d="M28.176 27.824c0.003-1.645 1.324-2.98 2.963-3.005l0.002-0v-24.82h-27.141c-2.153 0.007-3.896 1.75-3.902 3.902v24.196c0.007 2.153 1.75 3.896 3.902 3.902h27.142v-1.171c-1.642-0.019-2.966-1.354-2.966-2.999 0-0.002 0-0.004 0-0.006v0z"></path>
<path fill="none" stroke="#fff" stroke-width="1.1707" stroke-miterlimit="4" stroke-linecap="round" stroke-linejoin="round" style="stroke: var(--color3, #fff)" d="M8.937 8.351h13.366l-6.693 11.122-6.673-11.122z"></path>
<path fill="none" stroke="#fff" stroke-width="1.1707" stroke-miterlimit="4" stroke-linecap="round" stroke-linejoin="round" style="stroke: var(--color3, #fff)" d="M8.937 15.766h13.366l-6.693-11.122-6.673 11.122z"></path>
<path fill="none" stroke="#fff" stroke-width="1.1337" stroke-miterlimit="4" stroke-linecap="round" stroke-linejoin="round" style="stroke: var(--color3, #fff)" d="M27.883 27.337c0.008-1.597 1.304-2.888 2.901-2.888 0.009 0 0.018 0 0.027 0h-0.001v-1.054h-26.439c-0.002 0-0.005 0-0.008 0-2.079 0-3.768 1.671-3.797 3.744l-0 0.003v0.371c0.022 2.074 1.708 3.746 3.785 3.746 0.007 0 0.014-0 0.021-0h26.438v-1.054c-0.012 0-0.027 0-0.041 0-1.588 0-2.876-1.282-2.886-2.868v-0.001z"></path>
</symbol>
<symbol id="icon-geren" viewBox="0 0 32 32">
<title>geren</title>
<path stroke-width="1.8182" stroke-miterlimit="4" stroke-linecap="round" stroke-linejoin="round" d="M31.091 16c0 8.334-6.756 15.091-15.091 15.091s-15.091-6.756-15.091-15.091c0-8.334 6.756-15.091 15.091-15.091s15.091 6.756 15.091 15.091z"></path>
<path stroke-width="1.4545" stroke-miterlimit="4" stroke-linecap="round" stroke-linejoin="round" d="M21.218 13.2c0 2.882-2.336 5.218-5.218 5.218s-5.218-2.336-5.218-5.218c0-2.882 2.336-5.218 5.218-5.218s5.218 2.336 5.218 5.218z"></path>
<path stroke-width="1.4545" stroke-miterlimit="4" stroke-linecap="round" stroke-linejoin="round" d="M7.055 27.655q-0.082-0.573-0.109-1.145c0-4.4 4.055-7.982 9.073-7.982s9.036 3.564 9.036 7.982c-0 0.405-0.040 0.801-0.115 1.184l0.006-0.039"></path>
</symbol>
<symbol id="icon-gerenshi" viewBox="0 0 32 32">
<title>gerenshi</title>
<path fill="#32e4ea" stroke="#32e4ea" stroke-width="1.8182" stroke-miterlimit="10" stroke-linecap="butt" stroke-linejoin="miter" style="stroke: var(--color2, #32e4ea)" style="fill: var(--color2, #32e4ea)" d="M31.091 16c0 8.334-6.756 15.091-15.091 15.091s-15.091-6.756-15.091-15.091c0-8.334 6.756-15.091 15.091-15.091s15.091 6.756 15.091 15.091z"></path>
<path fill="none" stroke="#fff" stroke-width="1.4545" stroke-miterlimit="4" stroke-linecap="round" stroke-linejoin="round" style="stroke: var(--color3, #fff)" d="M21.218 12.655c0 2.882-2.336 5.218-5.218 5.218s-5.218-2.336-5.218-5.218c0-2.882 2.336-5.218 5.218-5.218s5.218 2.336 5.218 5.218z"></path>
<path fill="none" stroke="#fff" stroke-width="1.4545" stroke-miterlimit="4" stroke-linecap="round" stroke-linejoin="round" style="stroke: var(--color3, #fff)" d="M7.055 27.109c-0.060-0.338-0.099-0.733-0.109-1.135l-0-0.010c0-4.4 4.055-7.982 9.073-7.982s9.036 3.564 9.036 7.982c0 0.007 0 0.015 0 0.023 0 0.397-0.040 0.785-0.115 1.16l0.006-0.037"></path>
</symbol>
<symbol id="icon-xingweng" viewBox="0 0 30 32">
<title>xingweng</title>
<path stroke-width="1.8857" stroke-miterlimit="4" stroke-linecap="round" stroke-linejoin="round" d="M25.174 31.057h-20.46c-2.080-0.006-3.765-1.691-3.771-3.771v-22.572c0.006-2.080 1.691-3.765 3.771-3.771h20.46c2.080 0.006 3.765 1.691 3.771 3.771v22.553c0 0.006 0 0.012 0 0.019 0 2.083-1.689 3.771-3.771 3.771-0 0-0 0-0 0v0z"></path>
<path stroke-width="1.1314" stroke-miterlimit="4" stroke-linecap="round" stroke-linejoin="round" d="M4.978 20.95h19.913"></path>
<path stroke-width="1.1314" stroke-miterlimit="4" stroke-linecap="round" stroke-linejoin="round" d="M4.978 25.004h12.992"></path>
<path stroke-width="1.1314" stroke-miterlimit="4" stroke-linecap="round" stroke-linejoin="round" d="M14.935 4.582l2.112 4.262 4.714 0.698-3.413 3.319 0.811 4.695-4.224-2.225-4.205 2.225 0.811-4.695-3.413-3.319 4.714-0.698 2.093-4.262z"></path>
</symbol>
<symbol id="icon-xingwengshi" viewBox="0 0 30 32">
<title>xingwengshi</title>
<path fill="#32e4ea" style="fill: var(--color2, #32e4ea)" d="M25.748 32h-21.741c-2.211-0.007-4.001-1.797-4.008-4.007v-23.986c0.007-2.211 1.797-4.001 4.007-4.008h21.741c2.211 0.007 4.001 1.797 4.008 4.007v23.966c0 0.001 0 0.003 0 0.004 0 2.216-1.792 4.014-4.007 4.023h-0.001z"></path>
<path fill="none" stroke="#fff" stroke-width="1.2023" stroke-miterlimit="4" stroke-linecap="round" stroke-linejoin="round" style="stroke: var(--color3, #fff)" d="M4.288 21.26h21.16"></path>
<path fill="none" stroke="#fff" stroke-width="1.2023" stroke-miterlimit="4" stroke-linecap="round" stroke-linejoin="round" style="stroke: var(--color3, #fff)" d="M4.288 25.568h13.806"></path>
<path fill="none" stroke="#fff" stroke-width="1.2023" stroke-miterlimit="4" stroke-linecap="round" stroke-linejoin="round" style="stroke: var(--color3, #fff)" d="M14.868 3.867l2.244 4.528 5.009 0.741-3.627 3.527 0.862 4.989-4.488-2.364-4.468 2.364 0.862-4.989-3.627-3.527 5.009-0.741 2.224-4.529z"></path>
</symbol>
<symbol id="icon-xingyun" viewBox="0 0 34 32">
<title>xingyun</title>
<path stroke-width="1.7393" stroke-miterlimit="4" stroke-linecap="round" stroke-linejoin="round" d="M26.359 11.099l-4.331-0.417-3.6-8.627c-0.060-0.124-0.118-0.227-0.181-0.326l0.008 0.012c-0.090-0.145-0.181-0.27-0.282-0.387l0.003 0.004c-0.108-0.142-0.241-0.258-0.394-0.345l-0.006-0.003c-0.162-0.085-0.353-0.136-0.556-0.139h-0.001c-0.016-0.001-0.036-0.001-0.055-0.001-0.356 0-0.68 0.14-0.92 0.367l0.001-0.001c-0.237 0.244-0.421 0.541-0.534 0.871l-0.005 0.017-3.705 8.627-9.931 0.887c-0.249 0.050-0.467 0.16-0.645 0.315l0.002-0.001c-0.187 0.186-0.313 0.432-0.347 0.707l-0.001 0.006c-0.006 0.047-0.009 0.102-0.009 0.158 0 0.271 0.081 0.524 0.221 0.734l-0.003-0.005c0.188 0.299 0.407 0.557 0.657 0.78l0.004 0.003c0.017 0.017 0.139 0.122 0.348 0.313s0.487 0.417 0.817 0.713 0.713 0.609 1.131 0.974l1.27 1.078"></path>
<path stroke-width="1.0436" stroke-miterlimit="4" stroke-linecap="round" stroke-linejoin="round" d="M5.314 17.412c0.017 0.017 7.044-2.070 7.305-2.209v0c0.004-0.808 0.473-1.505 1.153-1.838l0.012-0.005c0.256-0.132 0.559-0.209 0.879-0.209 0.003 0 0.005 0 0.008 0h-0c1.134 0.002 2.052 0.922 2.052 2.056 0 0.355-0.090 0.69-0.249 0.981l0.005-0.011c0.104 0.122 3.948 4.314 3.983 4.348 0.18-0.072 0.388-0.116 0.606-0.122l0.002-0h0.087c0.070-0.174 5.166-9.201 5.201-9.305"></path>
<path stroke-width="1.0436" stroke-miterlimit="4" stroke-linecap="round" stroke-linejoin="round" d="M27.873 11.238c-0.035 0.052-5.409 9.671-5.496 9.81v0.017c0.216 0.275 0.347 0.627 0.348 1.009v0c0 0.003 0 0.006 0 0.009 0 0.917-0.744 1.661-1.661 1.661-0.914 0-1.656-0.739-1.661-1.652v-0c0-0.002 0-0.004 0-0.006 0-0.198 0.038-0.388 0.108-0.561l-0.004 0.010c-0.017-0.035-4-4.314-4.070-4.4-0.225 0.099-0.488 0.157-0.764 0.157-0 0-0.001 0-0.001 0h0c-0.648-0.003-1.224-0.307-1.597-0.778l-0.003-0.004-6.47 1.983"></path>
<path stroke-width="1.7393" stroke-miterlimit="4" stroke-linecap="round" stroke-linejoin="round" d="M6.601 18.491l2.122 1.826c-0.4 1.67-0.765 3.166-1.096 4.505-0.157 0.574-0.296 1.148-0.435 1.705s-0.261 1.061-0.365 1.531-0.209 0.852-0.296 1.183-0.139 0.539-0.157 0.626c-0.011 0.053-0.018 0.114-0.018 0.176 0 0.138 0.032 0.269 0.090 0.385l-0.002-0.005c0.091 0.193 0.228 0.352 0.396 0.467l0.004 0.003c0.17 0.123 0.378 0.205 0.604 0.226l0.005 0c0.051 0.008 0.109 0.013 0.169 0.013 0.18 0 0.349-0.043 0.498-0.12l-0.006 0.003c0.249-0.114 0.455-0.224 0.653-0.346l-0.026 0.015c0.313-0.174 0.678-0.383 1.113-0.644s0.904-0.539 1.426-0.835 1.061-0.591 1.583-0.887c1.235-0.713 2.626-1.513 4.14-2.418l8.401 4.887c0.104 0.035 0.261 0.104 0.47 0.174 0.138 0.065 0.299 0.103 0.469 0.104h0c0.002 0 0.005 0 0.007 0 0.315 0 0.612-0.077 0.873-0.214l-0.010 0.005c0.261-0.139 0.348-0.417 0.296-0.852-0.017-0.087-0.070-0.296-0.122-0.626s-0.139-0.73-0.244-1.2-0.191-0.991-0.313-1.583-0.226-1.165-0.348-1.739c-0.278-1.374-0.591-2.905-0.974-4.592l6.662-5.948c0.278-0.313 0.504-0.591 0.696-0.817 0.163-0.201 0.262-0.46 0.262-0.742 0-0.014-0-0.029-0.001-0.043l0 0.002c0.002-0.024 0.004-0.051 0.004-0.079 0-0.248-0.101-0.472-0.264-0.634l-0-0c-0.254-0.189-0.56-0.324-0.892-0.381l-0.012-0.002-4.087-0.383"></path>
</symbol>
<symbol id="icon-xingyunshi" viewBox="0 0 34 32">
<title>xingyunshi</title>
<path d="M22.369 10.362l-3.806-9.105q-0.068-0.136-0.184-0.34c-0.092-0.154-0.187-0.288-0.292-0.412l0.004 0.004c-0.12-0.141-0.261-0.259-0.419-0.352l-0.008-0.004c-0.163-0.096-0.359-0.153-0.569-0.153-0.009 0-0.019 0-0.028 0l0.001-0c-0.021-0.001-0.046-0.002-0.070-0.002-0.371 0-0.707 0.15-0.95 0.393v0c-0.247 0.26-0.443 0.571-0.571 0.915l-0.006 0.019-3.907 9.105-10.498 0.952c-0.265 0.051-0.496 0.171-0.681 0.341l0.001-0.001c-0.203 0.191-0.338 0.451-0.367 0.743l-0 0.005c-0.007 0.053-0.011 0.114-0.011 0.176 0 0.283 0.087 0.546 0.235 0.763l-0.003-0.005c0.202 0.317 0.432 0.59 0.694 0.83l0.003 0.003q0.033 0.033 0.368 0.323t0.866 0.748q0.527 0.459 1.189 1.020l1.344 1.132c0.022 0.018 7.444-2.187 7.719-2.325v0c0.007-0.855 0.504-1.592 1.222-1.946l0.013-0.006c0.274-0.139 0.597-0.22 0.939-0.221h0c1.193 0.011 2.157 0.976 2.169 2.168v0.001c-0 0.378-0.099 0.732-0.272 1.040l0.006-0.011c0.107 0.125 4.17 4.553 4.207 4.595 0.189-0.079 0.409-0.125 0.639-0.125h0.090c0.075-0.184 5.453-9.73 5.501-9.842z"></path>
<path d="M33.818 11.763c-0.269-0.196-0.59-0.339-0.937-0.406l-0.015-0.002-4.315-0.404c-0.029 0.064-5.71 10.213-5.811 10.359v0.018c0.229 0.291 0.367 0.663 0.368 1.068v0c0 0.969-0.786 1.755-1.755 1.755s-1.755-0.786-1.755-1.755v0c0-0.209 0.038-0.409 0.107-0.594l-0.004 0.012c-0.017-0.033-4.227-4.56-4.304-4.655-0.237 0.1-0.512 0.158-0.801 0.158h-0c-0.688-0.005-1.299-0.328-1.695-0.83l-0.004-0.005-6.83 2.145s1.446 1.242 2.24 1.93q-0.645 2.65-1.156 4.757-0.237 0.919-0.459 1.801t-0.391 1.614q-0.169 0.735-0.305 1.257t-0.169 0.662c-0.014 0.060-0.023 0.13-0.023 0.201 0 0.143 0.034 0.279 0.093 0.4l-0.002-0.005c0.099 0.202 0.243 0.368 0.42 0.49l0.004 0.003c0.182 0.126 0.4 0.214 0.636 0.245l0.008 0.001c0.049 0.007 0.105 0.011 0.162 0.011 0.196 0 0.38-0.048 0.541-0.134l-0.006 0.003q0.169-0.068 0.662-0.34t1.173-0.68 1.513-0.884 1.678-0.941q1.97-1.121 4.383-2.547l8.868 5.165q0.169 0.068 0.493 0.184c0.144 0.063 0.312 0.105 0.487 0.119l0.005 0c0.009 0 0.020 0 0.031 0 0.325 0 0.631-0.082 0.898-0.226l-0.010 0.005q0.408-0.221 0.305-0.901-0.035-0.136-0.136-0.663t-0.254-1.272q-0.153-0.748-0.323-1.665t-0.368-1.838q-0.441-2.174-1.020-4.858l7.034-6.321q0.441-0.509 0.735-0.866c0.175-0.218 0.282-0.498 0.282-0.803 0-0.011-0-0.022-0-0.033l0 0.002c0.002-0.020 0.002-0.044 0.002-0.068 0-0.26-0.106-0.496-0.276-0.667v0z"></path>
<path d="M4.725 17.436h-0.017z"></path>
</symbol>
</defs>
</svg>
