<svg id="图层_1" data-name="图层 1" xmlns="http://www.w3.org/2000/svg" viewBox="0 0 200.6 197.5"><title>hudong</title><path d="M31.7,157.4a3.08,3.08,0,0,1-1.3-.3,3,3,0,0,1-1.7-2.5L26,117.7C8.9,104.9-.8,86.2-.8,66.2-.8,28.9,33.4-1.5,75.5-1.5s76.6,30.4,76.6,67.7-34.3,67.7-76.4,67.7a82.32,82.32,0,0,1-9.1-.4L33.5,157A5.84,5.84,0,0,1,31.7,157.4ZM75.5,4.5C36.7,4.5,5.2,32.2,5.2,66.2c0,18.5,9.3,35.8,25.5,47.5a2.75,2.75,0,0,1,1.2,2.2l2.4,33L64,127.8a3.14,3.14,0,0,1,2.1-.5,66.43,66.43,0,0,0,9.5.5c38.8,0,70.4-27.7,70.4-61.7S114.4,4.5,75.5,4.5Z" transform="translate(0.8 1.5)"/><path d="M167.7,196a3.37,3.37,0,0,1-1.7-.5l-33.1-22a83,83,0,0,1-10.5.6c-20.4,0-39.7-6.9-54.3-19.4a3,3,0,0,1,3.9-4.5c13.5,11.6,31.4,17.9,50.3,17.9a72,72,0,0,0,10.8-.7,3.14,3.14,0,0,1,2.1.5l29.4,19.5V157.6a3.13,3.13,0,0,1,1.3-2.5c17.7-12,27.9-30,27.9-49.4,0-19.1-9.8-36.9-26.9-48.7a3,3,0,0,1,3.5-4.9c18.7,13,29.4,32.6,29.4,53.7s-10.6,40.4-29.2,53.5V193a2.88,2.88,0,0,1-1.6,2.6A1.84,1.84,0,0,1,167.7,196Z" transform="translate(0.8 1.5)"/><path d="M41.4,72.5a6.8,6.8,0,1,1,6.8-6.8A6.81,6.81,0,0,1,41.4,72.5Zm0-7.7a.79.79,0,0,0-.8.8.8.8,0,1,0,1.6,0A.79.79,0,0,0,41.4,64.8Z" transform="translate(0.8 1.5)"/><path d="M74.6,72.5a6.8,6.8,0,1,1,6.8-6.8A6.81,6.81,0,0,1,74.6,72.5Zm0-7.7a.79.79,0,0,0-.8.8.8.8,0,1,0,1.6,0A.79.79,0,0,0,74.6,64.8Z" transform="translate(0.8 1.5)"/><path d="M107.7,72.5a6.8,6.8,0,1,1,6.8-6.8A6.81,6.81,0,0,1,107.7,72.5Zm0-7.7a.79.79,0,0,0-.8.8.8.8,0,1,0,1.6,0A.79.79,0,0,0,107.7,64.8Z" transform="translate(0.8 1.5)"/></svg>