<svg id="图层_1" data-name="图层 1" xmlns="http://www.w3.org/2000/svg" viewBox="0 0 186 185.54"><defs><style>.cls-1{fill:none;stroke:#fff;stroke-linecap:round;stroke-linejoin:round;stroke-width:10px;}</style></defs><title>chunv</title><path class="cls-1" d="M62.1,24.5a12.1,12.1,0,1,0-24.2,0V153.2s-.3,32.9-27.2,34.6" transform="translate(-5.7 -7.36)"/><path class="cls-1" d="M86.4,24.5a12.1,12.1,0,1,0-24.2,0V174.6" transform="translate(-5.7 -7.36)"/><path class="cls-1" d="M86.4,174.6V24.5a12.1,12.1,0,1,1,24.2,0v97.7s-5.7,66.4,76.1,65.6" transform="translate(-5.7 -7.36)"/><path class="cls-1" d="M11.6,12.4s19.3-1.9,25.7,19.4" transform="translate(-5.7 -7.36)"/><path class="cls-1" d="M110.7,61.9S119,26,147.5,27.4,178.6,63,178,76c-.6,13.7-5.5,47.5-44.9,94.4-9.9,11.8-23.1,15.3-33.2,17.5" transform="translate(-5.7 -7.36)"/></svg>